<?xml version="1.0" encoding="utf-8" ?>
<svg xmlns="http://www.w3.org/2000/svg" xmlns:xlink="http://www.w3.org/1999/xlink" width="1024" height="1024">
	<path fill="#231F20" d="M201.267 654.022L205.47 654.522L205.809 655.692L202.043 662.025L201.702 662.122C200.178 662.397 200.094 662.397 198.844 661.573L198.372 659.738C198.438 657.131 199.388 655.733 201.267 654.022Z"/>
	<path fill="#231F20" d="M325.769 644.688L330.681 644.65C331.916 652.156 338.099 672.456 336.373 678.454L335.92 677.629C333.646 673.16 324.433 648.509 325.769 644.688Z"/>
	<path fill="#231F20" d="M249.295 585.317L250.814 585.757L251.189 586.879L247.573 593.015C240.881 601.24 231.764 608.043 223.787 614.999C220.687 617.704 217.444 621.214 214.014 623.442C212.826 624.214 211.295 624.294 209.919 624.429L207.819 623.699C209.474 620.091 244.208 589.315 249.295 585.317Z"/>
	<path fill="#231F20" d="M576.253 330.563L578.487 330.455C580.027 330.457 581.939 331.566 582.901 332.806L583.698 335.837C582.381 338.318 581.155 338.548 578.505 339.121C566.935 341.619 556.11 346.622 545.145 351.079C492.059 372.659 448.185 403.686 409.165 445.582C401.021 454.326 392.663 463.216 385.436 472.733C382.193 477.004 377.25 487.1 372.559 488.861L370.493 488.601C368.054 488.146 366.99 486.915 365.739 484.886C364.862 483.462 364.381 482.288 364.811 480.62C367.102 477.463 370.266 479.518 372.907 478.183C375.699 476.773 381.755 468.192 384.135 465.421C424.523 418.389 463.322 382.893 520.234 356.252C530.187 351.593 540.449 347.284 550.687 343.292C558.235 340.348 566.071 337.748 573.346 334.175L575.561 331.219L576.253 330.563Z"/>
	<path fill="#231F20" d="M160.193 648.344L180.224 651.087C184.399 658.227 187.274 666.178 190.763 673.675C195.38 683.594 200.626 693.368 206.161 702.802C229.622 742.789 266.194 782.807 302.778 811.135C317.761 822.736 333.929 833.155 350.201 842.855L342.264 873.28L334.84 869.856L336.209 853.109L333.503 856.792L328.555 866.376L324.235 863.463L325.634 855.72L320.399 861.253L312.409 856.078L318.063 833.331L305.608 852.291L275.382 830.29C227.267 791.893 188.832 739.824 169.129 681.339C165.559 670.743 161.459 659.509 160.193 648.344Z"/>
	<path fill="#231F20" d="M587.753 107.704C597.111 106.742 607.252 107.154 616.657 107.429C640.408 108.125 664.913 110.227 688.129 115.46C695.867 117.204 703.403 119.602 711.009 121.822C715.439 123.115 720.624 123.642 724.726 125.702C726.819 126.753 727.764 128.097 728.477 130.272C727.809 134.719 720.329 144.639 717.981 149.264C697.458 189.694 692.497 244.023 706.001 287.396C712.684 308.863 724.864 330.224 738.108 348.311C741.814 353.372 746.942 355.823 751.573 359.797C756.76 364.246 761.633 369.117 766.24 374.161C793.227 403.71 815.831 447.351 828.172 485.408C835.959 509.421 842.749 542.309 842.455 567.617C842.335 577.998 840.77 588.363 840.296 598.744C839.683 612.203 839.277 625.609 837.679 639.001C834.216 668.02 825.129 697.217 811.786 723.215C806.015 734.462 798.965 744.943 791.99 755.462C784.196 767.218 776.172 778.911 767.185 789.801C726.837 838.694 670.851 880.274 610.096 899.693C537.595 922.867 463.988 920.034 392.511 894.479C378.85 889.595 365.041 884.428 352.127 877.778L357.821 846.458C395.243 864.833 441.607 881.564 483.217 885.715C502.865 887.675 522.936 887.188 542.658 886.848C528.53 882.133 514.319 877.67 500.675 871.651C401.753 828.011 331.555 749.949 292.668 649.654L301.141 648.134C313.677 680.342 332.782 715.526 353.41 743.265C386.249 787.426 432.728 827.69 482.117 852.223C504.999 863.589 528.825 873.489 553.671 879.615C558.221 880.737 563.087 882.196 567.784 882.382C572.591 882.572 577.493 881.036 582.216 880.222C599.964 877.166 617.474 873.95 634.582 868.183C677.317 853.776 712.717 829.366 743.373 796.538C756.847 782.11 768.32 767.695 777.102 749.934L761.981 765.26C724.249 802.883 681.891 835.05 628.163 844.446C610.6 847.517 593.278 848.024 575.505 847.998C575.012 857.96 576.636 866.785 579.115 876.36C573.96 867.316 571.035 858.106 570.282 847.714C556.921 847.325 543.69 845.051 530.682 842.095C481.988 831.026 438.372 807.507 399.519 776.465C387.551 766.903 347.083 729.386 345.418 714.699L345.86 714.234C349.642 715.737 372.378 740.249 378.158 745.792C433.256 798.642 495.14 830.239 571.084 839.547C575.469 820.251 585.948 807.822 600.519 795.034C590.183 793.174 579.751 791.26 569.835 787.719C539.208 776.785 510.384 753.52 491.706 727.075C463.836 687.619 452.246 641.074 460.4 593.344C454.763 595.757 449.295 598.846 443.791 601.564C434.451 606.176 424.762 610.624 415.005 614.297C314.752 652.034 211.31 658.475 106.897 635.494C90.032 631.694 46.7622 619.687 33.6849 609.914C64.669 622.164 102.951 624.461 136.01 626.915C172.062 629.59 208.263 631.804 244.431 630.311C302.602 627.909 361.805 615.303 417.119 597.363C432.442 592.393 446.925 585.246 462.119 580.01C465.292 569.959 468.905 560.063 473.308 550.48C492.273 509.2 533.91 470.308 576.683 454.704C621.774 438.255 673.073 440.263 716.643 460.445C731.253 467.213 745.529 476.205 757.644 486.834C788.058 513.519 812.279 555.1 819.794 594.897C820.889 600.693 822.004 606.639 822.483 612.522C822.876 617.354 822.905 638.117 823.856 640.714L824.304 639.402C827 627.777 826.731 610.012 827.358 597.913C828.062 584.348 830.249 570.972 829.511 557.354C828.825 544.678 826.212 532.454 823.455 520.108C821.414 510.974 819.499 501.717 816.778 492.759C806.22 457.994 788.501 423.425 766.573 394.468C760.136 385.968 752.894 377.851 744.71 370.993C741.027 367.906 736.592 365.416 733.218 362.01C728.98 357.733 725.284 352.048 721.859 347.079C684.972 293.552 679.287 245.145 690.781 182.451C665.773 176.845 635.563 190.512 612.104 198.404C602.779 201.542 593.235 203.997 583.896 207.098C491.24 237.86 408.483 314.17 365.045 400.895C356.017 418.919 348.202 438.267 342.505 457.611C340.766 463.517 339.474 469.545 337.92 475.5C335.323 485.451 332.409 495.253 330.342 505.34C326.878 522.25 325.521 539.128 324.65 556.314C324.151 566.145 323.245 577.36 324.762 587.103C325.995 595.019 330.287 603.136 332.843 610.803L330.596 608.889L327.835 608.088L326.949 613.743L320.938 614.55L319.238 598.008C312.578 594.56 306.449 591.098 301.278 585.585C307.157 587.37 312.462 589.054 318.587 590.084L318.098 556.299C302.937 550.89 291.202 542.105 279.609 531.149C280.976 565.164 281.756 587.365 295.493 619.21L282.14 621.819L279.138 615.262L269.509 620.954L268.695 621.262L257.642 623.158L275.229 606.688L272.166 596.759C260.628 606.088 249.59 615.665 237.583 624.444L231.305 624.29C238.767 618.014 246.118 611.589 253.659 605.409C260.125 600.11 266.939 595.205 272.634 589.047L262.044 558.909C251.552 569.263 240.469 578.931 229.858 589.146C218.367 600.21 207.205 612.125 196.817 624.226L187.676 623.581L260.369 554.135L254.101 527.95C232.648 552.529 209.544 575.398 191.224 602.543C186.679 609.277 182.269 615.868 179.234 623.449L170.302 623.347C174.731 613.901 182.625 604.859 188.966 596.593C201.211 580.632 213.493 564.679 227.097 549.837C234.069 542.229 248.915 527.837 253.362 519.738L249.899 497.17C244.096 505.05 237.501 512.335 231.471 520.041C218.812 536.218 206.503 552.838 194.956 569.823C183.409 586.809 174.567 605.343 163.213 622.442L156.116 622.304C152.05 611.997 148.808 579.679 147.881 567.643C145.511 536.861 148.214 506.516 153.791 476.221C167.928 399.436 199.741 331.863 250.684 272.483C317.826 194.221 413.173 139.416 513.631 117.701C538.08 112.417 562.841 109.623 587.753 107.704Z"/>
	<path fill="#FEFEFE" d="M657.773 170.369L667.565 171.797L666.904 172.493L660.178 174.619L657.773 170.369Z"/>
	<path fill="#FEFEFE" d="M642.228 169.672L648.464 169.478L652.22 174.277L652.233 176.369L650.382 177.11L645.059 178.149C643.787 175.99 640.2 172.823 640.423 170.294L642.228 169.672Z"/>
	<path fill="#FEFEFE" d="M623.542 170.678L629.906 170.485L637.536 180.518L632.21 182.67L628.92 183.403L619.032 172.252L618.579 171.83L623.542 170.678Z"/>
	<path fill="#FEFEFE" d="M558.16 184.507C561.762 185.875 568.439 199.445 570.465 203.124C568.408 204.005 564.371 206.196 562.194 205.749L547.777 188.06L558.16 184.507Z"/>
	<path fill="#FEFEFE" d="M606.072 173.174L610.476 172.782L621.645 185.7L608.532 190.992L592.853 175.646L606.072 173.174Z"/>
	<path fill="#FEFEFE" d="M582.598 177.568L585.234 177.505C589.702 178.461 597.751 189.111 600.829 192.698L581.485 198.852L577.294 200.61L563.979 182.949L582.598 177.568Z"/>
	<path fill="#FEFEFE" d="M540.637 190.433L556.124 208.849L534.32 219.202L533.589 218.758C529.117 211.781 522.503 206.102 515.797 201.349L540.637 190.433Z"/>
	<path fill="#FEFEFE" d="M453.518 234.548L473.333 258L456.613 270.95L436.143 245.843L453.518 234.548Z"/>
	<path fill="#FEFEFE" d="M511.713 202.954C513.242 203.545 515.724 207.992 517.095 209.407C521.269 213.712 526.354 217.028 530.822 221.017L507.881 234.544L507.075 234.889L489.179 214.245L511.713 202.954Z"/>
	<path fill="#FEFEFE" d="M485.108 215.853L486.204 215.948C491.093 219.174 499.798 231.959 503.837 237.08C497.975 240.762 492.189 244.626 486.485 248.547C484.474 249.929 481.337 252.861 479.146 253.673C478.817 253.795 478.444 253.661 478.093 253.655C471.596 246.257 465.21 238.115 457.628 231.828L485.108 215.853Z"/>
	<path fill="#FEFEFE" d="M405.28 270.856L428.671 298.456L411.726 317.55L410.935 317.23L385.871 288.529L405.28 270.856Z"/>
	<path fill="#FEFEFE" d="M432.777 248.403L451.647 275.786L432.181 294.288L431.11 293.103L409.188 267.505L432.777 248.403Z"/>
	<path fill="#FEFEFE" d="M249.862 433.403C250.635 436.638 249.199 444.666 247.469 447.461C244.955 451.522 241.315 455.293 238.283 459.001C233.379 464.998 228.617 471.095 223.94 477.27C201.169 507.336 179.034 538.58 163.452 573.071L162.802 561.65C163.024 554.182 167.542 547.129 170.687 540.48C184.518 511.239 204.872 480.713 226.495 456.679C233.849 448.505 241.868 440.941 249.862 433.403Z"/>
	<path fill="#FEFEFE" d="M247.827 455.898C249.515 458.449 249.506 483.287 249.436 487.875C242.122 500.095 232.572 510.921 223.773 522.086C214.013 534.472 204.609 547.255 195.511 560.135C188.223 570.452 181.635 581.451 175.025 592.217C171.68 597.664 168.514 604.073 164.27 608.852L162.247 604.186C161.521 596.825 164.698 588.986 167.062 582.155C183.214 535.481 216.625 493.486 247.827 455.898Z"/>
	<path fill="#FEFEFE" d="M382.157 290.843C385.306 291.791 404.179 317.677 408.096 322.385L396.95 336.251C389.505 326.716 381.344 316.999 371.012 310.494C375.244 322.512 383.437 333.626 392.655 342.328C385.168 352.609 378.443 362.943 371.92 373.841L349.701 342.932C351.421 353.071 360.679 372.221 368.646 378.88L355.02 405.621L333.952 380.492L331.454 381.419L330.682 382.966C333.763 389.566 346.108 407.576 351.707 412.692L342.371 435.236C330.481 427.123 320.314 417.663 307.246 411.199C314.564 421.897 325.792 433.318 335.827 441.463L339.563 444.308C335.649 453.982 332.846 463.757 330.654 473.942L322.067 470.826C320.506 470.811 319.697 471.173 318.587 472.232L318.647 474.411C320.137 478.358 325.116 479.982 328.636 481.527L325.117 495.679C320.911 493.231 303.94 483.309 299.374 483.911L299.433 484.813C304.756 492.312 315.316 498.918 323.736 502.381C321.351 517.65 319.551 532.819 318.334 548.228C312.397 544.265 305.954 541.085 299.791 537.49C292.978 533.516 286.456 529.039 280.031 524.471C279.488 498.695 282.419 471.656 288.829 446.657C299.984 403.152 323.714 358.185 351.618 323.137C360.854 311.537 372.471 302.08 382.157 290.843Z"/>
	<path fill="#FEFEFE" d="M590.684 122.25C631.481 119.888 672.645 125.265 712.09 135.38C704.753 146.524 699.186 157.917 694.947 170.554C672.571 160.189 634.542 161.301 610.193 164.41C510.813 177.098 403.228 244.002 342.397 322.753C299.157 378.732 268.844 454.296 269.225 525.626C269.327 544.719 272.207 558.837 274.596 577.435C265.602 558.435 259.238 508.479 257.569 486.622C255.814 462.624 255.779 437.761 259.593 413.957C252.153 425.629 236.404 438.347 226.559 449.383C201.356 477.636 179.878 508.869 162.522 542.527C161.194 439.51 203.425 342.424 273.355 267.629C331.916 204.995 411.272 157.774 494.274 136.072C525.727 127.848 558.213 123.37 590.684 122.25Z"/>
	<path fill="#FEFEFE" d="M627.262 792.329C625.113 790.755 622.905 788.827 620.531 787.614C612.907 783.718 599.733 782.788 590.78 780.096C578.224 776.322 565.759 770.982 554.465 764.324C523.679 746.175 494.929 716.199 485.936 680.757C476.753 644.573 483.871 609.612 502.731 577.929C523.244 543.47 556.787 513.108 596.295 503.122C634.251 493.528 676.931 499.19 710.659 519.365C749.585 542.649 775.073 579.212 786.089 622.871C790.017 639.451 791.952 655.517 792.085 672.548C792.123 677.447 792.3 682.655 791.466 687.486L791.468 688.616C791.372 697.907 790.223 712.309 786.713 720.724C781.123 734.12 759.414 754.452 748.444 765.116C738.121 775.152 727.767 785.162 716.376 794.002C675.827 825.47 629.913 840.137 578.784 839.45C587.503 818.982 607.877 802.508 627.262 792.329Z"/>
	<path fill="#97C761" d="M613.49 814.551L618.341 814.671C620.738 815.37 622.914 817.397 624.007 819.609C625.019 821.658 625.233 824.08 624.426 826.232C623.372 829.044 621.391 830.203 618.763 831.37L614.226 831.588C611.945 831.032 610.022 829.559 608.849 827.531C607.596 825.364 607.357 822.649 608.086 820.268C609.021 817.209 610.756 815.974 613.49 814.551Z"/>
	<path fill="#97C761" d="M636.22 804.348C638.637 801.112 641.237 798.421 645.41 797.637C647.291 797.284 649.145 797.636 650.654 798.853C653.051 800.787 654.138 804.339 654.372 807.298C654.59 810.045 653.925 812.736 652.112 814.855C650.857 816.32 649.155 817.256 647.22 817.384C643.94 817.6 640.858 815.911 638.531 813.755L636.762 812.044L636.22 804.348Z"/>
	<path fill="#97C761" d="M675.786 782.041L677.755 782.146C680.616 782.576 683.315 784.268 684.977 786.631C686.866 789.318 687.656 792.828 686.926 796.047C686.375 798.473 684.916 801.195 682.623 802.39L678.882 803.199C676.228 803.747 673.669 803.486 671.288 802.102C667.835 800.096 666.697 796.836 665.757 793.213L667.631 787.61C669.529 784.177 672.145 783.036 675.786 782.041Z"/>
	<path fill="#97C761" d="M786.089 622.871C790.017 639.451 791.952 655.517 792.085 672.548C792.123 677.447 792.3 682.655 791.466 687.486C788.854 691.659 789.296 699.801 788.46 704.771C784.124 730.553 766.902 745.197 748.742 762.176C753.547 752.968 759.498 744.424 764.162 735.084C775.476 712.421 783.261 686.226 785.112 660.904C786.032 648.326 785.687 635.503 786.089 622.871Z"/>
	<path fill="#97C761" d="M675.539 549.42C704.147 553.9 730.351 570.31 747.297 593.758C766.47 620.288 772.255 655.271 767.04 687.253C762.672 714.034 748.549 740.104 732.385 761.569C727.712 767.774 722.522 774.601 716.134 779.138C713.349 781.117 709.596 782.918 706.084 782.285C703.096 781.746 700.485 779.367 698.888 776.886L696.916 773.443C697.1 771.408 697.187 769.147 697.841 767.204C700.372 759.684 710.586 748.245 715.154 740.442C723.836 725.609 735.652 700.481 739.687 683.91C741.761 675.394 742.461 666.168 742.617 657.418C743.131 628.596 736.137 603.643 717.384 581.186C712.225 575.007 706.344 569.659 699.989 564.738C692.47 558.262 683.422 555.021 675.539 549.42Z"/>
	<path fill="#231F20" d="M623.913 511.637L628.463 511.41L630.244 513.319C629.284 516.009 625.31 516.354 622.824 516.839C598.575 521.57 571.944 536.666 552.097 551.096C526.871 569.438 503.496 598.456 498.746 629.954C494.411 658.695 512.451 689.255 528.882 711.666C547.44 736.976 572.728 758.41 601.612 770.913C608.677 773.971 616.215 776.783 623.85 777.953C633.787 773.843 643.3 769.317 652.692 764.07C684.661 746.208 714.06 719.538 724.198 683.123C730.124 661.838 728.355 637.453 717.278 618.124C707.41 600.903 691.924 588.958 672.741 583.917C655.99 579.514 639.055 581.545 624.097 590.431C612.024 597.603 602.788 609.665 599.479 623.375C594.434 644.277 605.087 659.659 615.414 676.55C621.848 672.361 628.147 667.946 634.565 663.725C652.553 651.894 669.667 640.581 678.897 620.229C678.579 626.759 677.243 632.587 674.124 638.372C660.181 664.231 620.274 681.9 598.481 702.24C589.33 710.781 583.935 717.733 583.537 730.626L580.941 724.957C578.874 717.721 582.097 710.803 585.595 704.646C590.092 697.901 595.802 692.43 601.886 687.154C589.341 682.589 576.859 677.975 565.772 670.368C555.683 663.446 542.819 653.015 540.738 640.221L541.388 636.52L543.039 636.498C544.924 636.966 546.409 642.773 547.497 644.681C558.163 663.373 586.214 676.947 606.341 682.355L606.709 682.159L614.575 676.982C606.266 670.512 598.43 663.431 593.233 654.127C586.715 642.457 585.798 628.546 589.445 615.786C594.239 599.018 606.509 585.881 621.617 577.607C638.433 568.397 660.586 567.171 678.807 572.539C700.298 578.872 718.486 593.82 729.057 613.582C741.156 636.2 742.909 663.205 735.486 687.622C725.449 720.634 699.893 749.936 670.858 767.926C665.052 771.524 659.01 774.942 652.852 777.901C648.895 779.801 644.731 781.369 640.869 783.446L640.343 785.097L638.999 786.142C635.951 786.582 631.785 785.186 628.802 784.523C608.667 780.047 590.296 772.115 572.944 760.967C538.788 739.024 502.92 693.293 494.282 652.76C489.272 629.247 498.171 606.518 510.991 587.009C535.07 550.366 581.016 520.445 623.913 511.637Z"/>
</svg>
