<?xml version="1.0" encoding="utf-8" ?>
<svg xmlns="http://www.w3.org/2000/svg" xmlns:xlink="http://www.w3.org/1999/xlink" width="1024" height="1024">
	
	<defs>
		<linearGradient id="gradient_0" gradientUnits="userSpaceOnUse" x1="486.00433" y1="939.38055" x2="537.19568" y2="84.131424">
			<stop offset="0" stop-color="#84CBC3"/>
			<stop offset="1" stop-color="#FFF4D5"/>
		</linearGradient>
	</defs>
	<path fill="url(#gradient_0)" d="M258.99 856.821L240.846 842.795C152.688 770.251 97.5746 667.752 86.5287 553.989C75.37 439.063 111.337 325.712 184.583 236.85C254.817 151.641 359.413 96.249 469.311 85.6581C550.28 77.8551 628.449 92.526 701.34 128.402C730.451 142.73 757.821 159.839 782.855 180.53C869.487 252.131 926.109 356.235 936.735 468.458C944.707 552.654 929.751 635.76 890.109 710.689C883.657 722.884 875.011 739.999 866.318 750.5C858.137 764.376 847.187 777.134 836.802 789.402C779.062 857.611 700.851 905.827 614.371 928.129C507.824 955.607 389.521 936.814 295.16 880.905C284.964 874.864 267.341 864.545 258.99 856.821Z"/>
	<path fill="#05495D" d="M576.601 464.078C580.937 464.107 585.795 467.4 589.524 469.432C608.523 479.781 624.453 491.94 639.646 507.336L670.178 541.653C662.703 572.576 650.872 601.283 627.627 624.003C609.269 644.361 575.151 666.721 547.855 670.26C550.569 665.636 559.342 658.284 563.24 653.28C580.752 630.799 592.942 603.224 597.202 575.09C599.844 557.65 599.888 540.094 596.671 522.721C595.968 518.927 595.242 513.971 592.917 510.826C592.104 499.449 589.981 489.727 585.588 479.191L576.601 464.078Z"/>
	<path fill="#F36337" d="M461.88 360.76C482.676 352.153 522.096 353.469 544.726 353.495C556.168 353.508 567.833 353.128 579.249 353.898L600.232 354.069L604.388 354.706C599.737 356.87 594.065 357.531 589.117 358.922C580.094 361.458 571.265 364.409 562.542 367.838C527.038 381.791 492.56 404.141 469.01 434.598C465.492 439.146 460.187 445.744 458.26 451.264L458.048 451.907C452.441 458.779 446.643 464.878 442.15 472.608C436.476 484.493 432.921 495.31 431.451 508.453L433.658 531.134L431.275 528.421C407.52 498.895 395.664 461.76 397.092 423.964C397.404 415.688 398.953 407.689 399.825 399.487C412.786 383.529 442.435 367.09 461.88 360.76Z"/>
	<path fill="#921C2D" d="M521.13 354.008L579.249 353.898L600.232 354.069L604.388 354.706C599.737 356.87 594.065 357.531 589.117 358.922C580.094 361.458 571.265 364.409 562.542 367.838C527.038 381.791 492.56 404.141 469.01 434.598C465.492 439.146 460.187 445.744 458.26 451.264L458.048 451.907C452.441 458.779 446.643 464.878 442.15 472.608L442.177 469.027C442.756 464.363 444.229 459.6 445.426 455.056C456.607 412.627 487.393 380.138 521.13 354.008Z"/>
	<path fill="#921C2D" d="M461.88 360.76L461.603 361.431C460 365.121 456.153 369.08 453.741 372.374C450.266 377.12 446.97 382.228 444.336 387.489C428.707 418.714 423.245 453.023 427.19 487.648C427.895 493.843 428.222 501.437 430.746 507.221L431.451 508.453L433.658 531.134L431.275 528.421C407.52 498.895 395.664 461.76 397.092 423.964C397.404 415.688 398.953 407.689 399.825 399.487C412.786 383.529 442.435 367.09 461.88 360.76Z"/>
	<path fill="#05495D" d="M698.045 578.531C702.408 580.048 725.887 623.791 729.254 630.739C753.566 680.916 765.235 727.998 767.846 783.65C768.39 795.257 769.367 807.821 768.08 819.388C752.163 832.88 735.117 844.751 717.404 855.756C711.345 859.52 705.13 863.663 698.632 866.637L697.744 866.46L697.721 866.573C696.273 869.736 677.173 877.832 672.981 879.36L672.814 849.374L672.951 667.688C674.125 671.317 674.453 713.175 673.567 717.789L673.261 719.377L674.261 721.745C678.05 720.8 682.904 722.757 686.955 722.698C689.843 722.656 692.4 720.958 695.249 720.654L696.18 720.574C696.359 720.41 696.606 720.298 696.718 720.083C697.097 719.351 697.261 665.669 697.28 659.885C697.3 654.09 696.416 646.717 697.655 641.155L697.884 640.208L698.045 578.531Z"/>
	<path fill="#65D0D2" d="M672.951 667.688C674.125 671.317 674.453 713.175 673.567 717.789L673.261 719.377L674.261 721.745C678.05 720.8 682.904 722.757 686.955 722.698C689.843 722.656 692.4 720.958 695.249 720.654L696.18 720.574C696.359 720.41 696.606 720.298 696.718 720.083C697.097 719.351 697.261 665.669 697.28 659.885C697.3 654.09 696.416 646.717 697.655 641.155L697.884 640.208L697.744 866.46L697.721 866.573C696.273 869.736 677.173 877.832 672.981 879.36L672.814 849.374L672.951 667.688Z"/>
	<path fill="#F36337" d="M697.984 157.193C707.554 161.792 716.598 167.242 725.645 172.787C787.864 210.92 838.548 267.179 870.642 332.642L697.756 332.694L697.984 157.193Z"/>
	<path fill="#921C2D" d="M600.232 354.069L673.565 354.459L673.609 404.208L673.529 463.131C673.523 475.341 673.498 487.55 673.516 499.76C673.526 506.906 673.87 514.232 673.29 521.348C672.731 528.201 671.359 534.894 670.178 541.653L639.646 507.336C624.453 491.94 608.523 479.781 589.524 469.432C585.795 467.4 580.937 464.107 576.601 464.078C573.822 462.181 571.177 457.56 568.653 455.074C559.427 445.985 549.498 440.933 537.756 435.904C534.02 435.108 530.407 433.883 526.645 433.134C511.741 430.166 499.054 432.056 484.682 436.311C473.585 441.159 467.868 445.14 458.048 451.907L458.26 451.264C460.187 445.744 465.492 439.146 469.01 434.598C492.56 404.141 527.038 381.791 562.542 367.838C571.265 364.409 580.094 361.458 589.117 358.922C594.065 357.531 599.737 356.87 604.388 354.706L600.232 354.069Z"/>
	<path fill="#F36337" d="M600.232 354.069L673.565 354.459L673.609 404.208C660.572 402.302 647.788 399.79 634.635 398.638C591.486 394.86 545.644 401.416 507.345 422.508C500.97 426.019 491.172 430.14 485.849 434.873L484.682 436.311C473.585 441.159 467.868 445.14 458.048 451.907L458.26 451.264C460.187 445.744 465.492 439.146 469.01 434.598C492.56 404.141 527.038 381.791 562.542 367.838C571.265 364.409 580.094 361.458 589.117 358.922C594.065 357.531 599.737 356.87 604.388 354.706L600.232 354.069Z"/>
	<path fill="#FBF6DF" d="M484.682 436.311C499.054 432.056 511.741 430.166 526.645 433.134C530.407 433.883 534.02 435.108 537.756 435.904C549.498 440.933 559.427 445.985 568.653 455.074C571.177 457.56 573.822 462.181 576.601 464.078L585.588 479.191C589.981 489.727 592.104 499.449 592.917 510.826C592.35 521.194 591.344 531.389 587.465 541.152C586.039 544.738 583.311 548.401 582.299 552.032C578.715 557.662 575.05 562.853 570.348 567.634C568.207 569.812 564.653 572.284 562.932 574.665C550.57 583.293 538.665 589.232 523.554 591.476C502.59 592.235 491.911 590.435 473.023 581.363L472.243 580.968C452.778 570.9 439.89 551.66 433.658 531.134L431.451 508.453C432.921 495.31 436.476 484.493 442.15 472.608C446.643 464.878 452.441 458.779 458.048 451.907C467.868 445.14 473.585 441.159 484.682 436.311Z"/>
	<path fill="#921C2D" d="M504.516 440.201L505.078 440.114C523.007 438.135 543.463 444.777 557.267 456.231C571.874 468.35 582.278 486.452 583.918 505.507C585.561 524.588 579.971 543.838 567.502 558.497C555.487 572.622 537.077 582.195 518.623 583.783L518.445 583.806C500.16 585.121 480.168 578.908 465.875 567.435C451.731 556.081 441.912 538.881 439.968 520.791C437.82 500.806 443.143 481.963 455.875 466.364C468.265 451.183 485.107 442.231 504.516 440.201Z"/>
	<path fill="#F4A274" d="M510.672 473.7C520.26 473.59 529.542 476.067 537.175 482.045C544.985 488.162 550.102 497.186 551.255 507.045C552.455 517.304 549.631 527.933 543.192 536.049C536.577 544.388 527.053 548.63 516.655 549.814C506.84 550.486 497.484 547.441 489.825 541.278C481.805 534.826 477.262 525.788 476.274 515.588C475.256 505.068 478.391 494.92 485.127 486.781C491.779 478.743 500.365 474.605 510.672 473.7Z"/>
	<path fill="#921C2D" d="M508.913 487.626C514.135 487.009 519.403 487.682 524.136 490.059C530.033 493.02 534.306 498.325 536.288 504.59C538.335 511.059 537.559 518.295 534.283 524.235C530.945 530.287 525.524 534.015 519.01 535.972C512.622 536.763 506.734 536.487 501.01 533.118C495.5 529.876 491.529 524.374 490.018 518.176C488.325 511.235 489.565 503.434 493.516 497.464C497.241 491.835 502.483 489.001 508.913 487.626Z"/>
	<path fill="#F4A274" d="M509.752 494.625C513.025 494.368 516.208 494.699 519.252 496.001C523.669 497.891 527.197 501.529 528.833 506.061C530.432 510.491 530.167 515.39 527.962 519.567C525.465 524.299 521.287 527.067 516.25 528.513C511.971 528.845 508.127 528.804 504.229 526.706C500.308 524.596 497.537 520.962 496.31 516.703C494.995 512.142 495.483 507.178 497.855 503.045C500.568 498.315 504.724 496.117 509.752 494.625Z"/>
	<path fill="#F36337" d="M751.713 354.681L881.168 354.339C888.728 374.475 895.615 394.415 900.679 415.36C912.14 467.078 914.756 513.628 907.983 566.252C898.427 554.497 889.544 542.194 879.566 530.786C848.834 495.652 813.769 466.452 773.046 443.547C764.601 438.797 756.123 434.017 747.29 430.019C731.098 422.69 714.322 417.543 697.879 410.994L697.957 354.816L751.713 354.681Z"/>
	<path fill="#921C2D" d="M697.879 410.994C714.322 417.543 731.098 422.69 747.29 430.019C756.123 434.017 764.601 438.797 773.046 443.547C813.769 466.452 848.834 495.652 879.566 530.786C889.544 542.194 898.427 554.497 907.983 566.252C901.828 613.596 886.077 664.435 861.991 705.736C857.645 698.334 855.214 688.898 852.351 680.803C848.426 669.71 844.217 658.759 839.22 648.098C811.92 589.866 778.85 544.433 728.987 503.382C718.915 495.089 708.341 487.773 697.918 479.973L697.879 410.994Z"/>
	<path fill="#4D2C37" d="M697.918 479.973C708.341 487.773 718.915 495.089 728.987 503.382C778.85 544.433 811.92 589.866 839.22 648.098C844.217 658.759 848.426 669.71 852.351 680.803C855.214 688.898 857.645 698.334 861.991 705.736L846.981 731.026C824.492 764.1 798.616 793.475 768.08 819.388C769.367 807.821 768.39 795.257 767.846 783.65C765.235 727.998 753.566 680.916 729.254 630.739C725.887 623.791 702.408 580.048 698.045 578.531L697.918 479.973Z"/>
	<path fill="#65D0D2" d="M282.002 183.641C292.288 175.066 315.033 162.012 327.456 155.748L327.098 436.57L327.616 530.646L320.978 525.362C314.642 519.78 308.742 513.652 302.83 507.63C255.465 459.377 220.867 398.805 208.833 331.805C205.823 315.046 204.165 298.303 203.202 281.307C202.788 273.986 202.781 266.643 202.296 259.33C205.302 254.324 210.29 249.417 214.176 245.034C234.638 221.954 257.225 201.936 282.002 183.641Z"/>
	<path fill="#05495D" d="M360.053 463.059C366.242 440.67 383.275 415.737 399.825 399.487C398.953 407.689 397.404 415.688 397.092 423.964C395.664 461.76 407.52 498.895 431.275 528.421L433.658 531.134C439.89 551.66 452.778 570.9 472.243 580.968L473.023 581.363C491.911 590.435 502.59 592.235 523.554 591.476C538.665 589.232 550.57 583.293 562.932 574.665C564.653 572.284 568.207 569.812 570.348 567.634C575.05 562.853 578.715 557.662 582.299 552.032C583.311 548.401 586.039 544.738 587.465 541.152C591.344 531.389 592.35 521.194 592.917 510.826C595.242 513.971 595.968 518.927 596.671 522.721C599.888 540.094 599.844 557.65 597.202 575.09C592.942 603.224 580.752 630.799 563.24 653.28C559.342 658.284 550.569 665.636 547.855 670.26C531.446 673.795 514.141 673.085 497.46 673.043C480.88 673.001 464.301 672.939 447.721 672.906L351.71 672.993L351.969 616.048L351.946 553.002C351.884 522.316 350.975 492.74 360.053 463.059Z"/>
	<path fill="#2098A6" d="M592.917 510.826C595.242 513.971 595.968 518.927 596.671 522.721C599.888 540.094 599.844 557.65 597.202 575.09C592.942 603.224 580.752 630.799 563.24 653.28C559.342 658.284 550.569 665.636 547.855 670.26C531.446 673.795 514.141 673.085 497.46 673.043C480.88 673.001 464.301 672.939 447.721 672.906C452.796 672.323 458.098 670.369 462.987 668.851C492.047 659.826 519.878 643.557 541.08 621.64C556.965 605.219 569.238 586.638 578.119 565.592C579.772 561.672 582.37 556.322 582.299 552.032C583.311 548.401 586.039 544.738 587.465 541.152C591.344 531.389 592.35 521.194 592.917 510.826Z"/>
	<path fill="#2098A6" d="M360.053 463.059C366.242 440.67 383.275 415.737 399.825 399.487C398.953 407.689 397.404 415.688 397.092 423.964C395.664 461.76 407.52 498.895 431.275 528.421L433.658 531.134C439.89 551.66 452.778 570.9 472.243 580.968L473.023 581.363C491.911 590.435 502.59 592.235 523.554 591.476L522.583 592.51C514.516 595.157 505.058 595.767 496.605 596.104C462.958 597.443 428.015 591.374 397.246 577.523C387.072 572.944 377.131 567.74 367.48 562.152C362.603 559.329 357.835 555.905 352.798 553.416L351.946 553.002C351.884 522.316 350.975 492.74 360.053 463.059Z"/>
	<path fill="#05495D" d="M360.053 463.059C366.242 440.67 383.275 415.737 399.825 399.487C398.953 407.689 397.404 415.688 397.092 423.964C395.664 461.76 407.52 498.895 431.275 528.421L433.658 531.134C439.89 551.66 452.778 570.9 472.243 580.968L473.023 581.363L470.985 581.124C462.306 578.595 454.557 574.077 446.772 569.604C416.149 552.01 392.726 528.851 375.699 497.783C372.108 491.231 369.008 484.531 366.201 477.609C364.395 473.156 362.829 468.112 360.535 463.921L360.053 463.059Z"/>
	<path fill="#2098A6" d="M202.296 259.33C202.781 266.643 202.788 273.986 203.202 281.307C204.165 298.303 205.823 315.046 208.833 331.805C220.867 398.805 255.465 459.377 302.83 507.63C308.742 513.652 314.642 519.78 320.978 525.362L327.616 530.646L327.486 605.265L327.527 673.029L181.774 672.593L145.482 672.764C126.219 628.663 115.604 581.392 113.308 533.38C111.755 529.012 112.634 516.293 112.76 511.155C113.898 465.091 120.259 426.409 134.26 382.494C136.655 374.174 140.314 365.988 143.65 358.012C158.518 322.467 177.732 289.095 202.296 259.33Z"/>
	<path fill="#05495D" d="M113.308 533.38L113.826 532.86C147.209 580.586 203.421 623.203 254.123 651.463C267.826 659.101 282.087 665.388 296.041 672.501L181.774 672.593L145.482 672.764C126.219 628.663 115.604 581.392 113.308 533.38Z"/>
	<path fill="#F36337" d="M501.827 110.719C520.696 109.737 540.078 111.141 558.789 113.58C599.979 118.949 635.067 129.054 673.523 144.577L673.712 333.085C645.061 332.647 616.341 333.063 587.682 333.118C566.11 333.16 542.049 332.156 520.773 333.858C487.974 336.482 456.032 347.187 427.417 363.159C398.908 380.96 375.008 405.664 360.979 436.504C357.47 444.215 355.643 452.394 352.402 460.081L352 461.016L351.892 144.332C398.822 123.018 450.588 113.051 501.827 110.719Z"/>
	<path fill="#05495D" d="M157.227 696.84C217.698 696.577 278.174 696.395 338.645 696.567C369.493 696.654 400.334 696.78 431.181 696.694C471.769 696.581 511.035 698.481 550.158 685.397C593.246 670.986 633.361 643.364 657.118 603.975C661.296 597.048 664.947 589.803 668.176 582.388C669.937 578.342 671.341 574.107 673.334 570.171L673.566 569.723L672.951 667.688L672.814 849.374L672.662 879.145C647.931 889.922 621.698 898.49 595.261 903.952C506.107 922.369 413.258 910.682 331.847 869.763C315.937 861.767 300.813 852.451 285.945 842.681C282.595 839.174 276.899 836.039 272.87 833.092C265.601 827.775 258.523 822.211 251.74 816.283C220.738 789.182 194.109 758.281 172.343 723.313C167 714.729 161.609 705.96 157.227 696.84Z"/>
</svg>
